<svg width="206" height="37" viewBox="0 0 206 37" fill="none" xmlns="http://www.w3.org/2000/svg">
<path opacity="0.7" d="M55.804 12.856C55.57 12.766 55.3 12.73 54.994 12.73C53.68 12.73 52.672 13.378 52.24 14.512V12.874H50.548V22H52.24V17.374C52.24 15.304 53.212 14.314 54.958 14.314C55.264 14.314 55.552 14.332 55.804 14.386V12.856ZM64.8226 12.874V14.494C64.3006 13.342 63.0226 12.622 61.5286 12.622C59.0446 12.622 57.2086 14.62 57.2086 17.446C57.2086 20.254 59.0446 22.252 61.5286 22.252C63.0226 22.252 64.3006 21.532 64.8226 20.38V22H66.5146V12.874H64.8226ZM64.8946 17.446C64.8946 18.4 64.6246 19.174 64.0846 19.786C63.5446 20.38 62.8246 20.686 61.9426 20.686C61.0606 20.686 60.3406 20.38 59.7826 19.786C59.2426 19.174 58.9726 18.4 58.9726 17.446C58.9726 16.492 59.2426 15.7 59.7826 15.106C60.3406 14.494 61.0606 14.188 61.9426 14.188C63.7246 14.188 64.8946 15.52 64.8946 17.446ZM70.718 19.57C70.718 21.28 71.672 22.144 73.562 22.144C74.156 22.144 74.714 22.072 75.236 21.91V20.488C74.714 20.596 74.246 20.65 73.832 20.65C72.824 20.65 72.41 20.29 72.41 19.408V14.332H75.2V12.874H72.41V10.174H70.718V12.874H68.918V14.332H70.718V19.57ZM85.9377 17.95C85.9737 17.68 85.9917 17.41 85.9917 17.14C85.9917 14.458 84.1737 12.622 81.6357 12.622C78.9537 12.622 77.0457 14.674 77.0457 17.464C77.0457 20.29 78.9717 22.252 81.7797 22.252C83.4537 22.252 84.8577 21.568 85.7397 20.344L84.6417 19.372C83.9037 20.272 82.9497 20.722 81.8157 20.722C80.1057 20.722 78.9717 19.696 78.7737 17.95H85.9377ZM78.8097 16.654C79.0797 15.088 80.1057 14.17 81.6357 14.17C83.1297 14.17 84.1377 15.07 84.2817 16.654H78.8097ZM102.604 16.114C102.604 13.882 101.506 12.622 99.5075 12.622C97.9955 12.622 96.8075 13.342 96.3035 14.494C95.8715 13.288 94.8815 12.622 93.4955 12.622C92.1275 12.622 91.0295 13.27 90.5255 14.368V12.874H88.8335V22H90.5255V16.618C90.5255 15.124 91.5335 14.188 93.0275 14.188C94.3235 14.188 94.8815 14.908 94.8815 16.51V22H96.5735V16.618C96.5735 15.124 97.5815 14.188 99.0755 14.188C100.372 14.188 100.912 14.908 100.912 16.51V22H102.604V16.114ZM112.176 12.874V17.986C112.176 19.444 111.078 20.416 109.494 20.416C108.144 20.416 107.514 19.714 107.514 18.058V12.874H105.822V18.472C105.822 20.722 107.01 21.982 109.026 21.982C110.484 21.982 111.654 21.334 112.176 20.236V21.1C112.176 23.242 111.15 24.304 109.278 24.304C108.216 24.304 107.19 23.944 106.452 23.296L105.534 24.502C106.398 25.366 107.784 25.852 109.35 25.852C112.23 25.852 113.868 24.178 113.868 21.1V12.874H112.176ZM116.742 17.446C116.742 20.218 118.668 22.252 121.458 22.252C123.132 22.252 124.536 21.532 125.31 20.254L123.996 19.336C123.438 20.218 122.556 20.686 121.476 20.686C119.694 20.686 118.506 19.39 118.506 17.446C118.506 15.502 119.694 14.188 121.476 14.188C122.556 14.188 123.438 14.674 123.996 15.538L125.31 14.638C124.536 13.36 123.132 12.622 121.458 12.622C118.668 12.622 116.742 14.656 116.742 17.446ZM134.793 12.874V14.494C134.271 13.342 132.993 12.622 131.499 12.622C129.015 12.622 127.179 14.62 127.179 17.446C127.179 20.254 129.015 22.252 131.499 22.252C132.993 22.252 134.271 21.532 134.793 20.38V22H136.485V12.874H134.793ZM134.865 17.446C134.865 18.4 134.595 19.174 134.055 19.786C133.515 20.38 132.795 20.686 131.913 20.686C131.031 20.686 130.311 20.38 129.753 19.786C129.213 19.174 128.943 18.4 128.943 17.446C128.943 16.492 129.213 15.7 129.753 15.106C130.311 14.494 131.031 14.188 131.913 14.188C133.695 14.188 134.865 15.52 134.865 17.446ZM145.242 12.856C145.008 12.766 144.738 12.73 144.432 12.73C143.118 12.73 142.11 13.378 141.678 14.512V12.874H139.986V22H141.678V17.374C141.678 15.304 142.65 14.314 144.396 14.314C144.702 14.314 144.99 14.332 145.242 14.386V12.856ZM155.539 17.95C155.575 17.68 155.593 17.41 155.593 17.14C155.593 14.458 153.775 12.622 151.237 12.622C148.555 12.622 146.647 14.674 146.647 17.464C146.647 20.29 148.573 22.252 151.381 22.252C153.055 22.252 154.459 21.568 155.341 20.344L154.243 19.372C153.505 20.272 152.551 20.722 151.417 20.722C149.707 20.722 148.573 19.696 148.375 17.95H155.539ZM148.411 16.654C148.681 15.088 149.707 14.17 151.237 14.17C152.731 14.17 153.739 15.07 153.883 16.654H148.411ZM158.961 19.57C158.961 21.28 159.915 22.144 161.805 22.144C162.399 22.144 162.957 22.072 163.479 21.91V20.488C162.957 20.596 162.489 20.65 162.075 20.65C161.067 20.65 160.653 20.29 160.653 19.408V14.332H163.443V12.874H160.653V10.174H158.961V12.874H157.161V14.332H158.961V19.57ZM172.903 12.874V14.494C172.381 13.342 171.103 12.622 169.609 12.622C167.125 12.622 165.289 14.62 165.289 17.446C165.289 20.254 167.125 22.252 169.609 22.252C171.103 22.252 172.381 21.532 172.903 20.38V22H174.595V12.874H172.903ZM172.975 17.446C172.975 18.4 172.705 19.174 172.165 19.786C171.625 20.38 170.905 20.686 170.023 20.686C169.141 20.686 168.421 20.38 167.863 19.786C167.323 19.174 167.053 18.4 167.053 17.446C167.053 16.492 167.323 15.7 167.863 15.106C168.421 14.494 169.141 14.188 170.023 14.188C171.805 14.188 172.975 15.52 172.975 17.446ZM184.342 22H186.322L182.56 17.212L186.25 12.874H184.27L181.228 16.456H179.788V8.824H178.096V22H179.788V17.95H181.174L184.342 22ZM196.426 17.95C196.462 17.68 196.48 17.41 196.48 17.14C196.48 14.458 194.662 12.622 192.124 12.622C189.442 12.622 187.534 14.674 187.534 17.464C187.534 20.29 189.46 22.252 192.268 22.252C193.942 22.252 195.346 21.568 196.228 20.344L195.13 19.372C194.392 20.272 193.438 20.722 192.304 20.722C190.594 20.722 189.46 19.696 189.262 17.95H196.426ZM189.298 16.654C189.568 15.088 190.594 14.17 192.124 14.17C193.618 14.17 194.626 15.07 194.77 16.654H189.298ZM204.578 12.856C204.344 12.766 204.074 12.73 203.768 12.73C202.454 12.73 201.446 13.378 201.014 14.512V12.874H199.322V22H201.014V17.374C201.014 15.304 201.986 14.314 203.732 14.314C204.038 14.314 204.326 14.332 204.578 14.386V12.856Z" fill="#A4A6B3"/>
<path d="M32.3035 0.466762C31.9787 0.466762 31.6499 0.481387 31.3263 0.51056C27.9849 0.812399 24.9382 2.83854 22.7188 6.22676C20.1441 2.43486 15.8882 0 11.7945 0C10.8949 0 10.0035 0.116146 9.1456 0.345482C6.49434 1.0541 4.33266 3.02493 3.21544 5.75347C1.97731 8.77629 2.19039 12.3172 3.77172 14.9941C5.94344 18.6709 9.66689 20.9151 13.2672 23.085C15.1166 24.2001 17.0292 25.3521 18.6695 26.6727C19.158 27.0654 19.7718 27.5773 20.2984 28.1351C19.634 28.7889 18.3203 30.962 18.3077 30.988C17.8948 31.8551 17.3277 33.6885 17.8207 35.0601C18.0313 35.6451 18.4097 36.069 18.9466 36.3198C19.2219 36.4482 19.5117 36.5138 19.8074 36.5138C21.079 36.5138 22.2567 35.3105 23.0215 34.3016C24.42 32.4544 24.6293 30.5155 23.6431 28.536C25.3351 27.0077 27.1759 25.5871 28.957 24.2123C32.0211 21.8477 35.1892 19.4021 37.7102 16.3283C38.9418 14.8262 42.7496 9.54373 40.0583 4.62242C38.6354 2.02022 35.7363 0.466762 32.3035 0.466762ZM21.29 32.2474C21.034 32.7357 20.7757 33.0881 20.5067 33.3133C20.5608 32.588 20.8376 31.88 21.0154 31.4905C21.0653 31.3811 21.3923 30.8762 21.6274 30.5385C21.7012 31.1129 21.5898 31.6754 21.29 32.2474Z" fill="#9BFFE1"/>
<mask id="mask0_249_1429" style="mask-type:alpha" maskUnits="userSpaceOnUse" x="0" y="7" width="17" height="17">
<path opacity="0.8" d="M9.25755 7.61049L11.125 11.3632C11.2626 11.6351 11.5251 11.8239 11.828 11.8659L16.0226 12.4768C16.2675 12.5112 16.4898 12.6404 16.64 12.8376C16.7885 13.0323 16.8522 13.279 16.8162 13.5215C16.7868 13.7229 16.692 13.9092 16.5469 14.0519L13.5075 16.9982C13.2852 17.2038 13.1845 17.5084 13.2382 17.8063L13.9865 21.9484C14.0662 22.4486 13.7348 22.9202 13.2382 23.015C13.0335 23.0477 12.8238 23.0133 12.6392 22.9193L8.89765 20.97C8.61997 20.8298 8.29195 20.8298 8.01427 20.97L4.27271 22.9193C3.81298 23.1635 3.24336 22.9974 2.98749 22.5442C2.89269 22.3638 2.85914 22.1582 2.89018 21.9576L3.63849 17.8147C3.69218 17.5176 3.59067 17.2113 3.3692 17.0057L0.329805 14.0611C-0.0317678 13.712 -0.0426738 13.1372 0.305476 12.7755C0.313027 12.768 0.321416 12.7596 0.329805 12.7512C0.474098 12.6043 0.663693 12.5112 0.868389 12.4869L5.06297 11.8751C5.36498 11.8323 5.62756 11.6452 5.76598 11.3716L7.56629 7.61049C7.72652 7.28825 8.05873 7.08769 8.41947 7.09608H8.53188C8.8448 7.13384 9.11745 7.32769 9.25755 7.61049Z" fill="#9BFFE1"/>
<path d="M8.43199 20.8654C8.26952 20.8705 8.11125 20.9141 7.96888 20.9922L4.24561 22.9371C3.79004 23.1546 3.24487 22.9858 2.98945 22.5502C2.89482 22.3722 2.86048 22.1682 2.89231 21.9684L3.63595 17.8343C3.6862 17.5338 3.58571 17.2282 3.36714 17.0167L0.326383 14.0728C-0.0345544 13.7194 -0.0412539 13.1394 0.312147 12.7776C0.317171 12.7726 0.321359 12.7684 0.326383 12.7642C0.470423 12.6215 0.656335 12.5274 0.856484 12.4981L5.05458 11.8803C5.35857 11.8416 5.62237 11.6519 5.75636 11.3766L7.58114 7.56813C7.75449 7.2609 8.08696 7.07791 8.43868 7.09722C8.43199 7.34652 8.43199 20.6959 8.43199 20.8654Z" fill="#9BFFE1"/>
</mask>
<g mask="url(#mask0_249_1429)">
<path d="M32.3035 0.466762C31.9787 0.466762 31.6499 0.481387 31.3263 0.51056C27.9849 0.812399 24.9382 2.83854 22.7188 6.22676C20.1441 2.43486 15.8882 0 11.7945 0C10.8949 0 10.0035 0.116146 9.1456 0.345482C6.49434 1.0541 4.33266 3.02493 3.21544 5.75347C1.97731 8.77629 2.19039 12.3172 3.77172 14.9941C5.94344 18.6709 9.66689 20.9151 13.2672 23.085C15.1166 24.2001 17.0292 25.3521 18.6695 26.6727C19.158 27.0654 19.7718 27.5773 20.2984 28.1351C19.634 28.7889 18.3203 30.962 18.3077 30.988C17.8948 31.8551 17.3277 33.6885 17.8207 35.0601C18.0313 35.6451 18.4097 36.069 18.9466 36.3198C19.2219 36.4482 19.5117 36.5138 19.8074 36.5138C21.079 36.5138 22.2567 35.3105 23.0215 34.3016C24.42 32.4544 24.6293 30.5155 23.6431 28.536C25.3351 27.0077 27.1759 25.5871 28.957 24.2123C32.0211 21.8477 35.1892 19.4021 37.7102 16.3283C38.9418 14.8262 42.7496 9.54373 40.0583 4.62242C38.6354 2.02022 35.7363 0.466762 32.3035 0.466762ZM21.29 32.2474C21.034 32.7357 20.7757 33.0881 20.5067 33.3133C20.5608 32.588 20.8376 31.88 21.0154 31.4905C21.0653 31.3811 21.3923 30.8762 21.6274 30.5385C21.7012 31.1129 21.5898 31.6754 21.29 32.2474Z" fill="#4136F1"/>
</g>
</svg>
